<?xml version="1.0" encoding="UTF-8" standalone="no"?>
<!DOCTYPE svg PUBLIC "-//W3C//DTD SVG 1.1//EN"
 "http://www.w3.org/Graphics/SVG/1.1/DTD/svg11.dtd">
<!-- Generated by graphviz version 5.0.0 (20220707.1540)
 -->
<!-- Title: UmlClassDiagram Pages: 1 -->
<svg width="1263pt" height="1222pt"
 viewBox="0.00 0.00 1263.04 1222.20" xmlns="http://www.w3.org/2000/svg" xmlns:xlink="http://www.w3.org/1999/xlink">
<g id="graph0" class="graph" transform="scale(1 1) rotate(0) translate(4 1218.2)">
<title>UmlClassDiagram</title>
<polygon fill="white" stroke="transparent" points="-4,4 -4,-1218.2 1259.04,-1218.2 1259.04,4 -4,4"/>
<!-- 0 -->
<g id="node1" class="node">
<title>0</title>
<polygon fill="#f2f2f2" stroke="black" points="601.3,-829.9 601.3,-946.7 751.85,-946.7 751.85,-829.9 601.3,-829.9"/>
<text text-anchor="middle" x="676.58" y="-930.1" font-family="Times,serif" font-size="14.00">Constants</text>
<text text-anchor="middle" x="676.58" y="-913.3" font-family="Times,serif" font-size="14.00">src/Gas.sol</text>
<polyline fill="none" stroke="black" points="601.3,-905.1 751.85,-905.1 "/>
<text text-anchor="start" x="609.3" y="-888.5" font-family="Times,serif" font-size="14.00">Public:</text>
<text text-anchor="start" x="609.3" y="-871.7" font-family="Times,serif" font-size="14.00"> &#160;&#160;tradeFlag: uint256</text>
<text text-anchor="start" x="609.3" y="-854.9" font-family="Times,serif" font-size="14.00"> &#160;&#160;basicFlag: uint256</text>
<text text-anchor="start" x="609.3" y="-838.1" font-family="Times,serif" font-size="14.00"> &#160;&#160;dividendFlag: uint256</text>
</g>
<!-- 2 -->
<g id="node2" class="node">
<title>2</title>
<polygon fill="#f2f2f2" stroke="black" points="0,-1063.3 0,-1213.7 115.16,-1213.7 115.16,-1063.3 0,-1063.3"/>
<text text-anchor="middle" x="57.58" y="-1197.1" font-family="Times,serif" font-size="14.00">&lt;&lt;Enum&gt;&gt;</text>
<text text-anchor="middle" x="57.58" y="-1180.3" font-family="Times,serif" font-size="14.00">PaymentType</text>
<text text-anchor="middle" x="57.58" y="-1163.5" font-family="Times,serif" font-size="14.00">src/Gas.sol</text>
<polyline fill="none" stroke="black" points="0,-1155.3 115.16,-1155.3 "/>
<text text-anchor="start" x="8" y="-1138.7" font-family="Times,serif" font-size="14.00">Unknown: 0</text>
<text text-anchor="start" x="8" y="-1121.9" font-family="Times,serif" font-size="14.00">BasicPayment: 1</text>
<text text-anchor="start" x="8" y="-1105.1" font-family="Times,serif" font-size="14.00">Refund: 2</text>
<text text-anchor="start" x="8" y="-1088.3" font-family="Times,serif" font-size="14.00">Dividend: 3</text>
<text text-anchor="start" x="8" y="-1071.5" font-family="Times,serif" font-size="14.00">GroupPayment: 4</text>
</g>
<!-- 1 -->
<g id="node6" class="node">
<title>1</title>
<polygon fill="#f2f2f2" stroke="black" points="184.87,-0.5 184.87,-713.3 850.29,-713.3 850.29,-0.5 184.87,-0.5"/>
<text text-anchor="middle" x="517.58" y="-696.7" font-family="Times,serif" font-size="14.00">GasContract</text>
<text text-anchor="middle" x="517.58" y="-679.9" font-family="Times,serif" font-size="14.00">src/Gas.sol</text>
<polyline fill="none" stroke="black" points="184.87,-671.7 850.29,-671.7 "/>
<text text-anchor="start" x="192.87" y="-655.1" font-family="Times,serif" font-size="14.00">Public:</text>
<text text-anchor="start" x="192.87" y="-638.3" font-family="Times,serif" font-size="14.00"> &#160;&#160;totalSupply: uint256</text>
<text text-anchor="start" x="192.87" y="-621.5" font-family="Times,serif" font-size="14.00"> &#160;&#160;paymentCounter: uint256</text>
<text text-anchor="start" x="192.87" y="-604.7" font-family="Times,serif" font-size="14.00"> &#160;&#160;balances: mapping(address=&gt;uint256)</text>
<text text-anchor="start" x="192.87" y="-587.9" font-family="Times,serif" font-size="14.00"> &#160;&#160;tradePercent: uint256</text>
<text text-anchor="start" x="192.87" y="-571.1" font-family="Times,serif" font-size="14.00"> &#160;&#160;contractOwner: address</text>
<text text-anchor="start" x="192.87" y="-554.3" font-family="Times,serif" font-size="14.00"> &#160;&#160;tradeMode: uint256</text>
<text text-anchor="start" x="192.87" y="-537.5" font-family="Times,serif" font-size="14.00"> &#160;&#160;payments: mapping(address=&gt;Payment[])</text>
<text text-anchor="start" x="192.87" y="-520.7" font-family="Times,serif" font-size="14.00"> &#160;&#160;whitelist: mapping(address=&gt;uint256)</text>
<text text-anchor="start" x="192.87" y="-503.9" font-family="Times,serif" font-size="14.00"> &#160;&#160;administrators: address[5]</text>
<text text-anchor="start" x="192.87" y="-487.1" font-family="Times,serif" font-size="14.00"> &#160;&#160;isReady: bool</text>
<text text-anchor="start" x="192.87" y="-470.3" font-family="Times,serif" font-size="14.00"> &#160;&#160;defaultPayment: PaymentType</text>
<text text-anchor="start" x="192.87" y="-453.5" font-family="Times,serif" font-size="14.00"> &#160;&#160;paymentHistory: History[]</text>
<text text-anchor="start" x="192.87" y="-436.7" font-family="Times,serif" font-size="14.00"> &#160;&#160;wasLastOdd: uint256</text>
<text text-anchor="start" x="192.87" y="-419.9" font-family="Times,serif" font-size="14.00"> &#160;&#160;isOddWhitelistUser: mapping(address=&gt;uint256)</text>
<text text-anchor="start" x="192.87" y="-403.1" font-family="Times,serif" font-size="14.00"> &#160;&#160;whiteListStruct: mapping(address=&gt;ImportantStruct)</text>
<polyline fill="none" stroke="black" points="184.87,-394.9 850.29,-394.9 "/>
<text text-anchor="start" x="192.87" y="-378.3" font-family="Times,serif" font-size="14.00">External:</text>
<text text-anchor="start" x="192.87" y="-361.5" font-family="Times,serif" font-size="14.00"> &#160;&#160;&#160;&lt;&lt;payable&gt;&gt; null()</text>
<text text-anchor="start" x="192.87" y="-344.7" font-family="Times,serif" font-size="14.00"> &#160;&#160;&#160;&lt;&lt;payable&gt;&gt; null()</text>
<text text-anchor="start" x="192.87" y="-327.9" font-family="Times,serif" font-size="14.00">Public:</text>
<text text-anchor="start" x="192.87" y="-311.1" font-family="Times,serif" font-size="14.00"> &#160;&#160;&#160;&lt;&lt;payable&gt;&gt; getPaymentHistory(): (paymentHistory_: History[])</text>
<text text-anchor="start" x="192.87" y="-294.3" font-family="Times,serif" font-size="14.00"> &#160;&#160;&#160;&lt;&lt;event&gt;&gt; AddedToWhitelist(userAddress: address, tier: uint256)</text>
<text text-anchor="start" x="192.87" y="-277.5" font-family="Times,serif" font-size="14.00"> &#160;&#160;&#160;&lt;&lt;event&gt;&gt; supplyChanged(address, uint256)</text>
<text text-anchor="start" x="192.87" y="-260.7" font-family="Times,serif" font-size="14.00"> &#160;&#160;&#160;&lt;&lt;event&gt;&gt; Transfer(recipient: address, amount: uint256)</text>
<text text-anchor="start" x="192.87" y="-243.9" font-family="Times,serif" font-size="14.00"> &#160;&#160;&#160;&lt;&lt;event&gt;&gt; PaymentUpdated(admin: address, ID: uint256, amount: uint256, recipient: string)</text>
<text text-anchor="start" x="192.87" y="-227.1" font-family="Times,serif" font-size="14.00"> &#160;&#160;&#160;&lt;&lt;event&gt;&gt; WhiteListTransfer(address)</text>
<text text-anchor="start" x="192.87" y="-210.3" font-family="Times,serif" font-size="14.00"> &#160;&#160;&#160;&lt;&lt;modifier&gt;&gt; onlyAdminOrOwner()</text>
<text text-anchor="start" x="192.87" y="-193.5" font-family="Times,serif" font-size="14.00"> &#160;&#160;&#160;&lt;&lt;modifier&gt;&gt; checkIfWhiteListed(sender: address)</text>
<text text-anchor="start" x="192.87" y="-176.7" font-family="Times,serif" font-size="14.00"> &#160;&#160;&#160;constructor(_admins: address[], _totalSupply: uint256)</text>
<text text-anchor="start" x="192.87" y="-159.9" font-family="Times,serif" font-size="14.00"> &#160;&#160;&#160;checkForAdmin(_user: address): (admin_: bool)</text>
<text text-anchor="start" x="192.87" y="-143.1" font-family="Times,serif" font-size="14.00"> &#160;&#160;&#160;balanceOf(_user: address): (balance_: uint256)</text>
<text text-anchor="start" x="192.87" y="-126.3" font-family="Times,serif" font-size="14.00"> &#160;&#160;&#160;getTradingMode(): (mode_: bool)</text>
<text text-anchor="start" x="192.87" y="-109.5" font-family="Times,serif" font-size="14.00"> &#160;&#160;&#160;addHistory(_updateAddress: address, _tradeMode: bool): (status_: bool, tradeMode_: bool)</text>
<text text-anchor="start" x="192.87" y="-92.7" font-family="Times,serif" font-size="14.00"> &#160;&#160;&#160;getPayments(_user: address): (payments_: Payment[])</text>
<text text-anchor="start" x="192.87" y="-75.9" font-family="Times,serif" font-size="14.00"> &#160;&#160;&#160;transfer(_recipient: address, _amount: uint256, _name: string): (status_: bool)</text>
<text text-anchor="start" x="192.87" y="-59.1" font-family="Times,serif" font-size="14.00"> &#160;&#160;&#160;updatePayment(_user: address, _ID: uint256, _amount: uint256, _type: PaymentType) &lt;&lt;onlyAdminOrOwner&gt;&gt;</text>
<text text-anchor="start" x="192.87" y="-42.3" font-family="Times,serif" font-size="14.00"> &#160;&#160;&#160;addToWhitelist(_userAddrs: address, _tier: uint256) &lt;&lt;onlyAdminOrOwner&gt;&gt;</text>
<text text-anchor="start" x="192.87" y="-25.5" font-family="Times,serif" font-size="14.00"> &#160;&#160;&#160;whiteTransfer(_recipient: address, _amount: uint256) &lt;&lt;checkIfWhiteListed&gt;&gt;</text>
<text text-anchor="start" x="192.87" y="-8.7" font-family="Times,serif" font-size="14.00"> &#160;&#160;&#160;getPaymentStatus(sender: address): (bool, uint256)</text>
</g>
<!-- 2&#45;&gt;1 -->
<g id="edge2" class="edge">
<title>2&#45;&gt;1</title>
<path fill="none" stroke="black" d="M53.77,-1062.94C48.29,-981.63 45.91,-849.76 94.58,-749.8 115.83,-706.15 144.26,-665.11 176.4,-627.23"/>
<polygon fill="black" stroke="black" points="176.81,-626.76 177.7,-619.6 184.64,-617.67 183.75,-624.82 176.81,-626.76"/>
</g>
<!-- 3 -->
<g id="node3" class="node">
<title>3</title>
<polygon fill="#f2f2f2" stroke="black" points="94.52,-796.3 94.52,-980.3 272.64,-980.3 272.64,-796.3 94.52,-796.3"/>
<text text-anchor="middle" x="183.58" y="-963.7" font-family="Times,serif" font-size="14.00">&lt;&lt;Struct&gt;&gt;</text>
<text text-anchor="middle" x="183.58" y="-946.9" font-family="Times,serif" font-size="14.00">Payment</text>
<text text-anchor="middle" x="183.58" y="-930.1" font-family="Times,serif" font-size="14.00">src/Gas.sol</text>
<polyline fill="none" stroke="black" points="94.52,-921.9 272.64,-921.9 "/>
<text text-anchor="start" x="102.52" y="-905.3" font-family="Times,serif" font-size="14.00">paymentType: PaymentType</text>
<text text-anchor="start" x="102.52" y="-888.5" font-family="Times,serif" font-size="14.00">paymentID: uint256</text>
<text text-anchor="start" x="102.52" y="-871.7" font-family="Times,serif" font-size="14.00">adminUpdated: bool</text>
<text text-anchor="start" x="102.52" y="-854.9" font-family="Times,serif" font-size="14.00">recipientName: string</text>
<text text-anchor="start" x="102.52" y="-838.1" font-family="Times,serif" font-size="14.00">recipient: address</text>
<text text-anchor="start" x="102.52" y="-821.3" font-family="Times,serif" font-size="14.00">admin: address</text>
<text text-anchor="start" x="102.52" y="-804.5" font-family="Times,serif" font-size="14.00">amount: uint256</text>
</g>
<!-- 3&#45;&gt;2 -->
<g id="edge1" class="edge">
<title>3&#45;&gt;2</title>
<path fill="none" stroke="black" stroke-dasharray="5,2" d="M137.38,-980.31C125.11,-1004.48 111.92,-1030.45 99.87,-1054.19"/>
<polygon fill="black" stroke="black" points="96.72,-1052.66 95.31,-1063.17 102.96,-1055.83 96.72,-1052.66"/>
</g>
<!-- 3&#45;&gt;1 -->
<g id="edge3" class="edge">
<title>3&#45;&gt;1</title>
<path fill="none" stroke="black" d="M246.48,-795.93C260.57,-774.29 276.3,-749.9 292.9,-723.99"/>
<polygon fill="black" stroke="black" points="293.09,-723.7 292.95,-716.49 299.56,-713.59 299.69,-720.8 293.09,-723.7"/>
</g>
<!-- 4 -->
<g id="node4" class="node">
<title>4</title>
<polygon fill="#f2f2f2" stroke="black" points="291,-829.9 291,-946.7 434.15,-946.7 434.15,-829.9 291,-829.9"/>
<text text-anchor="middle" x="362.58" y="-930.1" font-family="Times,serif" font-size="14.00">&lt;&lt;Struct&gt;&gt;</text>
<text text-anchor="middle" x="362.58" y="-913.3" font-family="Times,serif" font-size="14.00">History</text>
<text text-anchor="middle" x="362.58" y="-896.5" font-family="Times,serif" font-size="14.00">src/Gas.sol</text>
<polyline fill="none" stroke="black" points="291,-888.3 434.15,-888.3 "/>
<text text-anchor="start" x="299" y="-871.7" font-family="Times,serif" font-size="14.00">lastUpdate: uint256</text>
<text text-anchor="start" x="299" y="-854.9" font-family="Times,serif" font-size="14.00">updatedBy: address</text>
<text text-anchor="start" x="299" y="-838.1" font-family="Times,serif" font-size="14.00">blockNumber: uint256</text>
</g>
<!-- 4&#45;&gt;1 -->
<g id="edge4" class="edge">
<title>4&#45;&gt;1</title>
<path fill="none" stroke="black" d="M383.87,-829.61C392.95,-801.56 404.2,-765.25 416.3,-725.25"/>
<polygon fill="black" stroke="black" points="416.35,-725.08 414.26,-718.18 419.82,-713.59 421.92,-720.49 416.35,-725.08"/>
</g>
<!-- 5 -->
<g id="node5" class="node">
<title>5</title>
<polygon fill="#f2f2f2" stroke="black" points="452.22,-804.7 452.22,-971.9 582.93,-971.9 582.93,-804.7 452.22,-804.7"/>
<text text-anchor="middle" x="517.58" y="-955.3" font-family="Times,serif" font-size="14.00">&lt;&lt;Struct&gt;&gt;</text>
<text text-anchor="middle" x="517.58" y="-938.5" font-family="Times,serif" font-size="14.00">ImportantStruct</text>
<text text-anchor="middle" x="517.58" y="-921.7" font-family="Times,serif" font-size="14.00">src/Gas.sol</text>
<polyline fill="none" stroke="black" points="452.22,-913.5 582.93,-913.5 "/>
<text text-anchor="start" x="460.22" y="-896.9" font-family="Times,serif" font-size="14.00">amount: uint256</text>
<text text-anchor="start" x="460.22" y="-880.1" font-family="Times,serif" font-size="14.00">valueA: uint256</text>
<text text-anchor="start" x="460.22" y="-863.3" font-family="Times,serif" font-size="14.00">bigValue: uint256</text>
<text text-anchor="start" x="460.22" y="-846.5" font-family="Times,serif" font-size="14.00">valueB: uint256</text>
<text text-anchor="start" x="460.22" y="-829.7" font-family="Times,serif" font-size="14.00">paymentStatus: bool</text>
<text text-anchor="start" x="460.22" y="-812.9" font-family="Times,serif" font-size="14.00">sender: address</text>
</g>
<!-- 5&#45;&gt;1 -->
<g id="edge5" class="edge">
<title>5&#45;&gt;1</title>
<path fill="none" stroke="black" d="M522.64,-804.56C523.17,-781.3 523.57,-754.42 523.85,-725.6"/>
<polygon fill="black" stroke="black" points="523.85,-725.59 519.91,-719.55 523.96,-713.59 527.91,-719.62 523.85,-725.59"/>
</g>
<!-- 1&#45;&gt;0 -->
<g id="edge7" class="edge">
<title>1&#45;&gt;0</title>
<path fill="none" stroke="black" d="M624.41,-713.59C633.93,-745.29 642.85,-775.01 650.54,-800.6"/>
<polygon fill="none" stroke="black" points="640.57,-803.9 659.25,-829.61 660.68,-797.86 640.57,-803.9"/>
</g>
<!-- 1&#45;&gt;2 -->
<g id="edge8" class="edge">
<title>1&#45;&gt;2</title>
<path fill="none" stroke="black" d="M184.86,-597.83C141.82,-643.57 103.45,-694.6 76.58,-749.8 29.86,-845.76 30.18,-971.13 39.37,-1052.94"/>
<polygon fill="black" stroke="black" points="35.9,-1053.43 40.56,-1062.94 42.85,-1052.6 35.9,-1053.43"/>
</g>
<!-- 1&#45;&gt;3 -->
<g id="edge11" class="edge">
<title>1&#45;&gt;3</title>
<path fill="none" stroke="black" stroke-dasharray="5,2" d="M286.79,-713.59C270.42,-739.89 255.01,-764.82 241.33,-787.17"/>
<polygon fill="black" stroke="black" points="238.21,-785.57 235.98,-795.93 244.18,-789.22 238.21,-785.57"/>
</g>
<!-- 1&#45;&gt;4 -->
<g id="edge9" class="edge">
<title>1&#45;&gt;4</title>
<path fill="none" stroke="black" d="M407.06,-713.59C395.66,-753.65 385.43,-790.55 377.62,-819.94"/>
<polygon fill="black" stroke="black" points="374.23,-819.05 375.07,-829.61 381,-820.84 374.23,-819.05"/>
</g>
<!-- 1&#45;&gt;5 -->
<g id="edge10" class="edge">
<title>1&#45;&gt;5</title>
<path fill="none" stroke="black" d="M511.2,-713.59C511.44,-742.77 511.81,-770.27 512.3,-794.42"/>
<polygon fill="black" stroke="black" points="508.8,-794.63 512.51,-804.56 515.8,-794.48 508.8,-794.63"/>
</g>
<!-- 7 -->
<g id="node8" class="node">
<title>7</title>
<polygon fill="#f2f2f2" stroke="black" points="770.11,-750.3 770.11,-1026.3 1255.04,-1026.3 1255.04,-750.3 770.11,-750.3"/>
<text text-anchor="middle" x="1012.58" y="-1009.7" font-family="Times,serif" font-size="14.00">&lt;&lt;Abstract&gt;&gt;</text>
<text text-anchor="middle" x="1012.58" y="-992.9" font-family="Times,serif" font-size="14.00">Ownable</text>
<text text-anchor="middle" x="1012.58" y="-976.1" font-family="Times,serif" font-size="14.00">src/Ownable.sol</text>
<polyline fill="none" stroke="black" points="770.11,-967.9 1255.04,-967.9 "/>
<text text-anchor="start" x="778.11" y="-951.3" font-family="Times,serif" font-size="14.00">Private:</text>
<text text-anchor="start" x="778.11" y="-934.5" font-family="Times,serif" font-size="14.00"> &#160;&#160;_owner: address</text>
<polyline fill="none" stroke="black" points="770.11,-926.3 1255.04,-926.3 "/>
<text text-anchor="start" x="778.11" y="-909.7" font-family="Times,serif" font-size="14.00">Internal:</text>
<text text-anchor="start" x="778.11" y="-892.9" font-family="Times,serif" font-size="14.00"> &#160;&#160;&#160;_checkOwner()</text>
<text text-anchor="start" x="778.11" y="-876.1" font-family="Times,serif" font-size="14.00"> &#160;&#160;&#160;_transferOwnership(newOwner: address)</text>
<text text-anchor="start" x="778.11" y="-859.3" font-family="Times,serif" font-size="14.00">Public:</text>
<text text-anchor="start" x="778.11" y="-842.5" font-family="Times,serif" font-size="14.00"> &#160;&#160;&#160;&lt;&lt;event&gt;&gt; OwnershipTransferred(previousOwner: address, newOwner: address)</text>
<text text-anchor="start" x="778.11" y="-825.7" font-family="Times,serif" font-size="14.00"> &#160;&#160;&#160;&lt;&lt;modifier&gt;&gt; onlyOwner()</text>
<text text-anchor="start" x="778.11" y="-808.9" font-family="Times,serif" font-size="14.00"> &#160;&#160;&#160;constructor()</text>
<text text-anchor="start" x="778.11" y="-792.1" font-family="Times,serif" font-size="14.00"> &#160;&#160;&#160;owner(): address</text>
<text text-anchor="start" x="778.11" y="-775.3" font-family="Times,serif" font-size="14.00"> &#160;&#160;&#160;renounceOwnership() &lt;&lt;onlyOwner&gt;&gt;</text>
<text text-anchor="start" x="778.11" y="-758.5" font-family="Times,serif" font-size="14.00"> &#160;&#160;&#160;transferOwnership(newOwner: address) &lt;&lt;onlyOwner&gt;&gt;</text>
</g>
<!-- 1&#45;&gt;7 -->
<g id="edge6" class="edge">
<title>1&#45;&gt;7</title>
<path fill="none" stroke="black" d="M850.15,-713.59C854.74,-718.49 859.28,-723.35 863.77,-728.15"/>
<polygon fill="none" stroke="black" points="856.21,-735.44 884.37,-750.18 871.55,-721.1 856.21,-735.44"/>
</g>
<!-- 6 -->
<g id="node7" class="node">
<title>6</title>
<polygon fill="#f2f2f2" stroke="black" points="933.62,-1080.1 933.62,-1196.9 1091.53,-1196.9 1091.53,-1080.1 933.62,-1080.1"/>
<text text-anchor="middle" x="1012.58" y="-1180.3" font-family="Times,serif" font-size="14.00">&lt;&lt;Abstract&gt;&gt;</text>
<text text-anchor="middle" x="1012.58" y="-1163.5" font-family="Times,serif" font-size="14.00">Context</text>
<text text-anchor="middle" x="1012.58" y="-1146.7" font-family="Times,serif" font-size="14.00">src/Ownable.sol</text>
<polyline fill="none" stroke="black" points="933.62,-1138.5 1091.53,-1138.5 "/>
<text text-anchor="start" x="941.62" y="-1121.9" font-family="Times,serif" font-size="14.00">Internal:</text>
<text text-anchor="start" x="941.62" y="-1105.1" font-family="Times,serif" font-size="14.00"> &#160;&#160;&#160;_msgSender(): address</text>
<text text-anchor="start" x="941.62" y="-1088.3" font-family="Times,serif" font-size="14.00"> &#160;&#160;&#160;_msgData(): bytes</text>
</g>
<!-- 7&#45;&gt;6 -->
<g id="edge12" class="edge">
<title>7&#45;&gt;6</title>
<path fill="none" stroke="black" d="M1012.58,-1026.47C1012.58,-1034.41 1012.58,-1042.29 1012.58,-1049.96"/>
<polygon fill="none" stroke="black" points="1002.08,-1049.99 1012.58,-1079.99 1023.08,-1049.99 1002.08,-1049.99"/>
</g>
</g>
</svg>
