<?xml version="1.0" encoding="UTF-8" standalone="no"?>
<!DOCTYPE svg PUBLIC "-//W3C//DTD SVG 1.1//EN"
 "http://www.w3.org/Graphics/SVG/1.1/DTD/svg11.dtd">
<!-- Generated by graphviz version 5.0.0 (20220707.1540)
 -->
<!-- Title: UmlClassDiagram Pages: 1 -->
<svg width="706pt" height="1408pt"
 viewBox="0.00 0.00 706.00 1408.00" xmlns="http://www.w3.org/2000/svg" xmlns:xlink="http://www.w3.org/1999/xlink">
<g id="graph0" class="graph" transform="scale(1 1) rotate(0) translate(4 1404)">
<title>UmlClassDiagram</title>
<polygon fill="white" stroke="transparent" points="-4,4 -4,-1404 702,-1404 702,4 -4,4"/>
<g id="clust1" class="cluster">
<title>cluster_0</title>
<polygon fill="white" stroke="black" points="8,-8 8,-1392 690,-1392 690,-8 8,-8"/>
<text text-anchor="middle" x="349" y="-16.2" font-family="Times,serif" font-size="14.00">src</text>
</g>
<!-- 1 -->
<g id="node1" class="node">
<title>1</title>
<polygon fill="#f2f2f2" stroke="black" points="297.94,-41.3 297.94,-225.3 476.06,-225.3 476.06,-41.3 297.94,-41.3"/>
<text text-anchor="middle" x="387" y="-208.7" font-family="Times,serif" font-size="14.00">&lt;&lt;Struct&gt;&gt;</text>
<text text-anchor="middle" x="387" y="-191.9" font-family="Times,serif" font-size="14.00">Payment</text>
<text text-anchor="middle" x="387" y="-175.1" font-family="Times,serif" font-size="14.00">src/Gas.sol</text>
<polyline fill="none" stroke="black" points="297.94,-166.9 476.06,-166.9 "/>
<text text-anchor="start" x="305.94" y="-150.3" font-family="Times,serif" font-size="14.00">paymentType: PaymentType</text>
<text text-anchor="start" x="305.94" y="-133.5" font-family="Times,serif" font-size="14.00">paymentID: uint256</text>
<text text-anchor="start" x="305.94" y="-116.7" font-family="Times,serif" font-size="14.00">adminUpdated: bool</text>
<text text-anchor="start" x="305.94" y="-99.9" font-family="Times,serif" font-size="14.00">recipientName: string</text>
<text text-anchor="start" x="305.94" y="-83.1" font-family="Times,serif" font-size="14.00">recipient: address</text>
<text text-anchor="start" x="305.94" y="-66.3" font-family="Times,serif" font-size="14.00">admin: address</text>
<text text-anchor="start" x="305.94" y="-49.5" font-family="Times,serif" font-size="14.00">amount: uint256</text>
</g>
<!-- 4 -->
<g id="node4" class="node">
<title>4</title>
<polygon fill="#f2f2f2" stroke="black" points="252.42,-262.3 252.42,-412.7 367.58,-412.7 367.58,-262.3 252.42,-262.3"/>
<text text-anchor="middle" x="310" y="-396.1" font-family="Times,serif" font-size="14.00">&lt;&lt;Enum&gt;&gt;</text>
<text text-anchor="middle" x="310" y="-379.3" font-family="Times,serif" font-size="14.00">PaymentType</text>
<text text-anchor="middle" x="310" y="-362.5" font-family="Times,serif" font-size="14.00">src/Gas.sol</text>
<polyline fill="none" stroke="black" points="252.42,-354.3 367.58,-354.3 "/>
<text text-anchor="start" x="260.42" y="-337.7" font-family="Times,serif" font-size="14.00">Unknown: 0</text>
<text text-anchor="start" x="260.42" y="-320.9" font-family="Times,serif" font-size="14.00">BasicPayment: 1</text>
<text text-anchor="start" x="260.42" y="-304.1" font-family="Times,serif" font-size="14.00">Refund: 2</text>
<text text-anchor="start" x="260.42" y="-287.3" font-family="Times,serif" font-size="14.00">Dividend: 3</text>
<text text-anchor="start" x="260.42" y="-270.5" font-family="Times,serif" font-size="14.00">GroupPayment: 4</text>
</g>
<!-- 1&#45;&gt;4 -->
<g id="edge1" class="edge">
<title>1&#45;&gt;4</title>
<path fill="none" stroke="black" stroke-dasharray="5,2" d="M352.33,-225.34C348.9,-234.35 345.43,-243.46 342.03,-252.4"/>
<polygon fill="black" stroke="black" points="338.66,-251.41 338.37,-262 345.2,-253.9 338.66,-251.41"/>
</g>
<!-- 0 -->
<g id="node5" class="node">
<title>0</title>
<polygon fill="#f2f2f2" stroke="black" points="16.29,-449.7 16.29,-1196.1 681.71,-1196.1 681.71,-449.7 16.29,-449.7"/>
<text text-anchor="middle" x="349" y="-1179.5" font-family="Times,serif" font-size="14.00">GasContract</text>
<text text-anchor="middle" x="349" y="-1162.7" font-family="Times,serif" font-size="14.00">src/Gas.sol</text>
<polyline fill="none" stroke="black" points="16.29,-1154.5 681.71,-1154.5 "/>
<text text-anchor="start" x="24.29" y="-1137.9" font-family="Times,serif" font-size="14.00">Public:</text>
<text text-anchor="start" x="24.29" y="-1121.1" font-family="Times,serif" font-size="14.00"> &#160;&#160;totalSupply: uint256</text>
<text text-anchor="start" x="24.29" y="-1104.3" font-family="Times,serif" font-size="14.00"> &#160;&#160;paymentCounter: uint256</text>
<text text-anchor="start" x="24.29" y="-1087.5" font-family="Times,serif" font-size="14.00"> &#160;&#160;balances: mapping(address=&gt;uint256)</text>
<text text-anchor="start" x="24.29" y="-1070.7" font-family="Times,serif" font-size="14.00"> &#160;&#160;tradePercent: uint8</text>
<text text-anchor="start" x="24.29" y="-1053.9" font-family="Times,serif" font-size="14.00"> &#160;&#160;contractOwner: address</text>
<text text-anchor="start" x="24.29" y="-1037.1" font-family="Times,serif" font-size="14.00"> &#160;&#160;tradeMode: bool</text>
<text text-anchor="start" x="24.29" y="-1020.3" font-family="Times,serif" font-size="14.00"> &#160;&#160;payments: mapping(address=&gt;Payment[])</text>
<text text-anchor="start" x="24.29" y="-1003.5" font-family="Times,serif" font-size="14.00"> &#160;&#160;whitelist: mapping(address=&gt;uint256)</text>
<text text-anchor="start" x="24.29" y="-986.7" font-family="Times,serif" font-size="14.00"> &#160;&#160;administrators: address[5]</text>
<text text-anchor="start" x="24.29" y="-969.9" font-family="Times,serif" font-size="14.00"> &#160;&#160;isReady: bool</text>
<text text-anchor="start" x="24.29" y="-953.1" font-family="Times,serif" font-size="14.00"> &#160;&#160;tradeFlag: bool</text>
<text text-anchor="start" x="24.29" y="-936.3" font-family="Times,serif" font-size="14.00"> &#160;&#160;dividendFlag: bool</text>
<text text-anchor="start" x="24.29" y="-919.5" font-family="Times,serif" font-size="14.00"> &#160;&#160;wasLastOdd: bool</text>
<text text-anchor="start" x="24.29" y="-902.7" font-family="Times,serif" font-size="14.00"> &#160;&#160;isOddWhitelistUser: mapping(address=&gt;bool)</text>
<text text-anchor="start" x="24.29" y="-885.9" font-family="Times,serif" font-size="14.00"> &#160;&#160;whiteListStruct: mapping(address=&gt;ImportantStruct)</text>
<text text-anchor="start" x="24.29" y="-869.1" font-family="Times,serif" font-size="14.00"> &#160;&#160;defaultPayment: PaymentType</text>
<text text-anchor="start" x="24.29" y="-852.3" font-family="Times,serif" font-size="14.00"> &#160;&#160;paymentHistory: History[]</text>
<polyline fill="none" stroke="black" points="16.29,-844.1 681.71,-844.1 "/>
<text text-anchor="start" x="24.29" y="-827.5" font-family="Times,serif" font-size="14.00">Private:</text>
<text text-anchor="start" x="24.29" y="-810.7" font-family="Times,serif" font-size="14.00"> &#160;&#160;&#160;addHistory(_updateAddress: address, _tradeMode: bool): (status_: bool, tradeMode_: bool)</text>
<text text-anchor="start" x="24.29" y="-793.9" font-family="Times,serif" font-size="14.00">External:</text>
<text text-anchor="start" x="24.29" y="-777.1" font-family="Times,serif" font-size="14.00"> &#160;&#160;&#160;&lt;&lt;payable&gt;&gt; null()</text>
<text text-anchor="start" x="24.29" y="-760.3" font-family="Times,serif" font-size="14.00"> &#160;&#160;&#160;&lt;&lt;payable&gt;&gt; null()</text>
<text text-anchor="start" x="24.29" y="-743.5" font-family="Times,serif" font-size="14.00"> &#160;&#160;&#160;getPayments(_user: address): (payments_: Payment[])</text>
<text text-anchor="start" x="24.29" y="-726.7" font-family="Times,serif" font-size="14.00"> &#160;&#160;&#160;transfer(_recipient: address, _amount: uint256, _name: string): (status_: bool)</text>
<text text-anchor="start" x="24.29" y="-709.9" font-family="Times,serif" font-size="14.00"> &#160;&#160;&#160;updatePayment(_user: address, _ID: uint256, _amount: uint256, _type: PaymentType) &lt;&lt;onlyAdminOrOwner&gt;&gt;</text>
<text text-anchor="start" x="24.29" y="-693.1" font-family="Times,serif" font-size="14.00"> &#160;&#160;&#160;addToWhitelist(_userAddrs: address, _tier: uint256) &lt;&lt;onlyAdminOrOwner&gt;&gt;</text>
<text text-anchor="start" x="24.29" y="-676.3" font-family="Times,serif" font-size="14.00"> &#160;&#160;&#160;whiteTransfer(_recipient: address, _amount: uint256) &lt;&lt;checkIfWhiteListed&gt;&gt;</text>
<text text-anchor="start" x="24.29" y="-659.5" font-family="Times,serif" font-size="14.00"> &#160;&#160;&#160;getPaymentStatus(sender: address): (bool, uint256)</text>
<text text-anchor="start" x="24.29" y="-642.7" font-family="Times,serif" font-size="14.00">Public:</text>
<text text-anchor="start" x="24.29" y="-625.9" font-family="Times,serif" font-size="14.00"> &#160;&#160;&#160;&lt;&lt;event&gt;&gt; supplyChanged(address, uint256)</text>
<text text-anchor="start" x="24.29" y="-609.1" font-family="Times,serif" font-size="14.00"> &#160;&#160;&#160;&lt;&lt;event&gt;&gt; Transfer(recipient: address, amount: uint256)</text>
<text text-anchor="start" x="24.29" y="-592.3" font-family="Times,serif" font-size="14.00"> &#160;&#160;&#160;&lt;&lt;event&gt;&gt; PaymentUpdated(admin: address, ID: uint256, amount: uint256, recipient: string)</text>
<text text-anchor="start" x="24.29" y="-575.5" font-family="Times,serif" font-size="14.00"> &#160;&#160;&#160;&lt;&lt;event&gt;&gt; WhiteListTransfer(address)</text>
<text text-anchor="start" x="24.29" y="-558.7" font-family="Times,serif" font-size="14.00"> &#160;&#160;&#160;&lt;&lt;event&gt;&gt; AddedToWhitelist(userAddress: address, tier: uint256)</text>
<text text-anchor="start" x="24.29" y="-541.9" font-family="Times,serif" font-size="14.00"> &#160;&#160;&#160;&lt;&lt;modifier&gt;&gt; onlyAdminOrOwner()</text>
<text text-anchor="start" x="24.29" y="-525.1" font-family="Times,serif" font-size="14.00"> &#160;&#160;&#160;&lt;&lt;modifier&gt;&gt; checkIfWhiteListed(sender: address)</text>
<text text-anchor="start" x="24.29" y="-508.3" font-family="Times,serif" font-size="14.00"> &#160;&#160;&#160;constructor(_admins: address[], _totalSupply: uint256)</text>
<text text-anchor="start" x="24.29" y="-491.5" font-family="Times,serif" font-size="14.00"> &#160;&#160;&#160;checkForAdmin(_user: address): (admin_: bool)</text>
<text text-anchor="start" x="24.29" y="-474.7" font-family="Times,serif" font-size="14.00"> &#160;&#160;&#160;balanceOf(_user: address): (balance_: uint256)</text>
<text text-anchor="start" x="24.29" y="-457.9" font-family="Times,serif" font-size="14.00"> &#160;&#160;&#160;getTradingMode(): (mode_: bool)</text>
</g>
<!-- 1&#45;&gt;0 -->
<g id="edge3" class="edge">
<title>1&#45;&gt;0</title>
<path fill="none" stroke="black" d="M376.65,-225.4C373.79,-279.91 371.27,-350.54 368,-413.2 367.58,-421.25 367.14,-429.39 366.69,-437.6"/>
<polygon fill="black" stroke="black" points="366.69,-437.68 370.34,-443.9 366.02,-449.67 362.36,-443.45 366.69,-437.68"/>
</g>
<!-- 2 -->
<g id="node2" class="node">
<title>2</title>
<polygon fill="#f2f2f2" stroke="black" points="199.43,-1249.9 199.43,-1366.7 342.57,-1366.7 342.57,-1249.9 199.43,-1249.9"/>
<text text-anchor="middle" x="271" y="-1350.1" font-family="Times,serif" font-size="14.00">&lt;&lt;Struct&gt;&gt;</text>
<text text-anchor="middle" x="271" y="-1333.3" font-family="Times,serif" font-size="14.00">History</text>
<text text-anchor="middle" x="271" y="-1316.5" font-family="Times,serif" font-size="14.00">src/Gas.sol</text>
<polyline fill="none" stroke="black" points="199.43,-1308.3 342.57,-1308.3 "/>
<text text-anchor="start" x="207.43" y="-1291.7" font-family="Times,serif" font-size="14.00">lastUpdate: uint256</text>
<text text-anchor="start" x="207.43" y="-1274.9" font-family="Times,serif" font-size="14.00">updatedBy: address</text>
<text text-anchor="start" x="207.43" y="-1258.1" font-family="Times,serif" font-size="14.00">blockNumber: uint256</text>
</g>
<!-- 2&#45;&gt;0 -->
<g id="edge4" class="edge">
<title>2&#45;&gt;0</title>
<path fill="none" stroke="black" d="M284.85,-1249.72C287.22,-1237.44 289.78,-1223.61 292.48,-1208.64"/>
<polygon fill="black" stroke="black" points="292.56,-1208.21 289.68,-1201.6 294.68,-1196.4 297.56,-1203.01 292.56,-1208.21"/>
</g>
<!-- 3 -->
<g id="node3" class="node">
<title>3</title>
<polygon fill="#f2f2f2" stroke="black" points="360.64,-1233.1 360.64,-1383.5 491.36,-1383.5 491.36,-1233.1 360.64,-1233.1"/>
<text text-anchor="middle" x="426" y="-1366.9" font-family="Times,serif" font-size="14.00">&lt;&lt;Struct&gt;&gt;</text>
<text text-anchor="middle" x="426" y="-1350.1" font-family="Times,serif" font-size="14.00">ImportantStruct</text>
<text text-anchor="middle" x="426" y="-1333.3" font-family="Times,serif" font-size="14.00">src/Gas.sol</text>
<polyline fill="none" stroke="black" points="360.64,-1325.1 491.36,-1325.1 "/>
<text text-anchor="start" x="368.64" y="-1308.5" font-family="Times,serif" font-size="14.00">amount: uint256</text>
<text text-anchor="start" x="368.64" y="-1291.7" font-family="Times,serif" font-size="14.00">valueA: uint16</text>
<text text-anchor="start" x="368.64" y="-1274.9" font-family="Times,serif" font-size="14.00">valueB: uint16</text>
<text text-anchor="start" x="368.64" y="-1258.1" font-family="Times,serif" font-size="14.00">paymentStatus: bool</text>
<text text-anchor="start" x="368.64" y="-1241.3" font-family="Times,serif" font-size="14.00">sender: address</text>
</g>
<!-- 3&#45;&gt;0 -->
<g id="edge5" class="edge">
<title>3&#45;&gt;0</title>
<path fill="none" stroke="black" d="M419.17,-1232.81C418.13,-1225.07 417.01,-1216.87 415.8,-1208.31"/>
<polygon fill="black" stroke="black" points="415.8,-1208.28 411,-1202.9 414.12,-1196.4 418.92,-1201.78 415.8,-1208.28"/>
</g>
<!-- 4&#45;&gt;0 -->
<g id="edge2" class="edge">
<title>4&#45;&gt;0</title>
<path fill="none" stroke="black" d="M310.96,-412.71C311.39,-420.53 311.88,-428.82 312.42,-437.48"/>
<polygon fill="black" stroke="black" points="312.42,-437.55 316.79,-443.29 313.17,-449.53 308.8,-443.79 312.42,-437.55"/>
</g>
<!-- 0&#45;&gt;1 -->
<g id="edge9" class="edge">
<title>0&#45;&gt;1</title>
<path fill="none" stroke="black" stroke-dasharray="5,2" d="M384.01,-449.67C384.71,-437.37 385.37,-425.19 386,-413.2 389.07,-354.33 391.48,-288.43 392.2,-235.47"/>
<polygon fill="black" stroke="black" points="395.7,-235.44 392.32,-225.4 388.7,-235.36 395.7,-235.44"/>
</g>
<!-- 0&#45;&gt;2 -->
<g id="edge8" class="edge">
<title>0&#45;&gt;2</title>
<path fill="none" stroke="black" d="M283.11,-1196.4C280.86,-1211.95 278.82,-1226.47 277.07,-1239.55"/>
<polygon fill="black" stroke="black" points="273.57,-1239.34 275.73,-1249.72 280.51,-1240.26 273.57,-1239.34"/>
</g>
<!-- 0&#45;&gt;3 -->
<g id="edge6" class="edge">
<title>0&#45;&gt;3</title>
<path fill="none" stroke="black" d="M402.55,-1196.4C404.17,-1205.59 405.75,-1214.42 407.27,-1222.81"/>
<polygon fill="black" stroke="black" points="403.86,-1223.61 409.1,-1232.81 410.74,-1222.35 403.86,-1223.61"/>
</g>
<!-- 0&#45;&gt;4 -->
<g id="edge7" class="edge">
<title>0&#45;&gt;4</title>
<path fill="none" stroke="black" d="M324.74,-449.53C323.84,-440.23 322.95,-431.29 322.07,-422.82"/>
<polygon fill="black" stroke="black" points="325.54,-422.29 321.02,-412.71 318.57,-423.02 325.54,-422.29"/>
</g>
</g>
</svg>
