<?xml version="1.0" encoding="UTF-8" standalone="no"?>
<!DOCTYPE svg PUBLIC "-//W3C//DTD SVG 1.1//EN"
 "http://www.w3.org/Graphics/SVG/1.1/DTD/svg11.dtd">
<!-- Generated by graphviz version 5.0.0 (20220707.1540)
 -->
<!-- Title: StorageDiagram Pages: 1 -->
<svg width="1241pt" height="568pt"
 viewBox="0.00 0.00 1240.58 568.20" xmlns="http://www.w3.org/2000/svg" xmlns:xlink="http://www.w3.org/1999/xlink">
<g id="graph0" class="graph" transform="scale(1 1) rotate(0) translate(4 564.2)">
<title>StorageDiagram</title>
<polygon fill="white" stroke="transparent" points="-4,4 -4,-564.2 1236.58,-564.2 1236.58,4 -4,4"/>
<!-- 4 -->
<g id="node1" class="node">
<title>4</title>
<polygon fill="#f2f2f2" stroke="black" points="0,-230.7 0,-453.9 527.68,-453.9 527.68,-230.7 0,-230.7"/>
<text text-anchor="middle" x="263.84" y="-437.3" font-family="Courier New" font-size="14.00">GasContract &lt;&lt;Contract&gt;&gt;</text>
<polyline fill="none" stroke="black" points="0,-429.1 527.68,-429.1 "/>
<text text-anchor="middle" x="24.8" y="-412.5" font-family="Courier New" font-size="14.00">slot</text>
<polyline fill="none" stroke="black" points="0,-404.3 49.61,-404.3 "/>
<text text-anchor="middle" x="24.8" y="-387.7" font-family="Courier New" font-size="14.00">0</text>
<polyline fill="none" stroke="black" points="0,-379.5 49.61,-379.5 "/>
<text text-anchor="middle" x="24.8" y="-362.9" font-family="Courier New" font-size="14.00">1</text>
<polyline fill="none" stroke="black" points="0,-354.7 49.61,-354.7 "/>
<text text-anchor="middle" x="24.8" y="-338.1" font-family="Courier New" font-size="14.00">2&#45;6</text>
<polyline fill="none" stroke="black" points="0,-329.9 49.61,-329.9 "/>
<text text-anchor="middle" x="24.8" y="-313.3" font-family="Courier New" font-size="14.00">7</text>
<polyline fill="none" stroke="black" points="0,-305.1 49.61,-305.1 "/>
<text text-anchor="middle" x="24.8" y="-288.5" font-family="Courier New" font-size="14.00">8</text>
<polyline fill="none" stroke="black" points="0,-280.3 49.61,-280.3 "/>
<text text-anchor="middle" x="24.8" y="-263.7" font-family="Courier New" font-size="14.00">9</text>
<polyline fill="none" stroke="black" points="0,-255.5 49.61,-255.5 "/>
<text text-anchor="middle" x="24.8" y="-238.9" font-family="Courier New" font-size="14.00">10</text>
<polyline fill="none" stroke="black" points="49.61,-230.7 49.61,-429.1 "/>
<text text-anchor="middle" x="288.64" y="-412.5" font-family="Courier New" font-size="14.00">type: &lt;inherited contract&gt;.variable (bytes)</text>
<polyline fill="none" stroke="black" points="49.61,-404.3 527.68,-404.3 "/>
<text text-anchor="middle" x="288.22" y="-387.7" font-family="Courier New" font-size="14.00">uint256: paymentCounter (32)</text>
<polyline fill="none" stroke="black" points="49.61,-379.5 527.68,-379.5 "/>
<text text-anchor="middle" x="145.82" y="-362.9" font-family="Courier New" font-size="14.00">unallocated (12)</text>
<polyline fill="none" stroke="black" points="242.03,-354.7 242.03,-379.5 "/>
<text text-anchor="middle" x="384.45" y="-362.9" font-family="Courier New" font-size="14.00">address: contractOwner (20)</text>
<polyline fill="none" stroke="black" points="49.61,-354.7 527.68,-354.7 "/>
<text text-anchor="middle" x="288.53" y="-338.1" font-family="Courier New" font-size="14.00">address[5]: administrators (160)</text>
<polyline fill="none" stroke="black" points="49.61,-329.9 527.68,-329.9 "/>
<text text-anchor="middle" x="288.63" y="-313.3" font-family="Courier New" font-size="14.00">mapping(address=&gt;uint256): balances (32)</text>
<polyline fill="none" stroke="black" points="49.61,-305.1 527.68,-305.1 "/>
<text text-anchor="middle" x="288.53" y="-288.5" font-family="Courier New" font-size="14.00">mapping(address=&gt;Payment[]): payments (32)</text>
<polyline fill="none" stroke="black" points="49.61,-280.3 527.68,-280.3 "/>
<text text-anchor="middle" x="288.64" y="-263.7" font-family="Courier New" font-size="14.00">mapping(address=&gt;ImportantStruct): whiteListStruct (32)</text>
<polyline fill="none" stroke="black" points="49.61,-255.5 527.68,-255.5 "/>
<text text-anchor="middle" x="288.33" y="-238.9" font-family="Courier New" font-size="14.00">mapping(address=&gt;uint256): whitelist (32)</text>
</g>
<!-- 1 -->
<g id="node2" class="node">
<title>1</title>
<polygon fill="#f2f2f2" stroke="black" points="738.91,-410.9 738.91,-559.7 1057.35,-559.7 1057.35,-410.9 738.91,-410.9"/>
<text text-anchor="middle" x="898.13" y="-543.1" font-family="Courier New" font-size="14.00">address[5]: administrators &lt;&lt;Array&gt;&gt;</text>
<polyline fill="none" stroke="black" points="738.91,-534.9 1057.35,-534.9 "/>
<text text-anchor="middle" x="763.71" y="-518.3" font-family="Courier New" font-size="14.00">slot</text>
<polyline fill="none" stroke="black" points="738.91,-510.1 788.51,-510.1 "/>
<text text-anchor="middle" x="763.71" y="-493.5" font-family="Courier New" font-size="14.00">2</text>
<polyline fill="none" stroke="black" points="738.91,-485.3 788.51,-485.3 "/>
<text text-anchor="middle" x="763.71" y="-468.7" font-family="Courier New" font-size="14.00">3</text>
<polyline fill="none" stroke="black" points="738.91,-460.5 788.51,-460.5 "/>
<text text-anchor="middle" x="763.71" y="-443.9" font-family="Courier New" font-size="14.00">5</text>
<polyline fill="none" stroke="black" points="738.91,-435.7 788.51,-435.7 "/>
<text text-anchor="middle" x="763.71" y="-419.1" font-family="Courier New" font-size="14.00">6</text>
<polyline fill="none" stroke="black" points="788.51,-410.9 788.51,-534.9 "/>
<text text-anchor="middle" x="922.63" y="-518.3" font-family="Courier New" font-size="14.00">type: variable (bytes)</text>
<polyline fill="none" stroke="black" points="788.51,-510.1 1056.75,-510.1 "/>
<text text-anchor="middle" x="863.72" y="-493.5" font-family="Courier New" font-size="14.00">unallocated (12)</text>
<polyline fill="none" stroke="black" points="938.93,-485.3 938.93,-510.1 "/>
<text text-anchor="middle" x="997.84" y="-493.5" font-family="Courier New" font-size="14.00">address (20)</text>
<polyline fill="none" stroke="black" points="788.51,-485.3 1056.75,-485.3 "/>
<text text-anchor="middle" x="863.72" y="-468.7" font-family="Courier New" font-size="14.00">unallocated (12)</text>
<polyline fill="none" stroke="black" points="938.93,-460.5 938.93,-485.3 "/>
<text text-anchor="middle" x="997.84" y="-468.7" font-family="Courier New" font-size="14.00">address (20)</text>
<polyline fill="none" stroke="black" points="788.51,-460.5 1056.75,-460.5 "/>
<text text-anchor="middle" x="863.72" y="-443.9" font-family="Courier New" font-size="14.00">unallocated (12)</text>
<polyline fill="none" stroke="black" points="938.93,-435.7 938.93,-460.5 "/>
<text text-anchor="middle" x="997.84" y="-443.9" font-family="Courier New" font-size="14.00">address (20)</text>
<polyline fill="none" stroke="black" points="788.51,-435.7 1056.75,-435.7 "/>
<text text-anchor="middle" x="863.72" y="-419.1" font-family="Courier New" font-size="14.00">unallocated (12)</text>
<polyline fill="none" stroke="black" points="938.93,-410.9 938.93,-435.7 "/>
<text text-anchor="middle" x="997.84" y="-419.1" font-family="Courier New" font-size="14.00">address (20)</text>
</g>
<!-- 4&#45;&gt;1 -->
<g id="edge1" class="edge">
<title>4:7&#45;&gt;1</title>
<path fill="none" stroke="black" d="M527.68,-342.3C558.4,-342.3 538.95,-383.08 563.68,-401.3 611.29,-436.37 671.98,-456.88 728.5,-468.84"/>
<polygon fill="black" stroke="black" points="728.13,-472.34 738.63,-470.9 729.53,-465.48 728.13,-472.34"/>
</g>
<!-- 2 -->
<g id="node3" class="node">
<title>2</title>
<polygon fill="#f2f2f2" stroke="black" points="563.68,-193.1 563.68,-391.5 1232.58,-391.5 1232.58,-193.1 563.68,-193.1"/>
<text text-anchor="middle" x="898.13" y="-374.9" font-family="Courier New" font-size="14.00">Payment &lt;&lt;Struct&gt;&gt;</text>
<polyline fill="none" stroke="black" points="563.68,-366.7 1232.58,-366.7 "/>
<text text-anchor="middle" x="596.88" y="-350.1" font-family="Courier New" font-size="14.00">offset</text>
<polyline fill="none" stroke="black" points="563.68,-341.9 630.09,-341.9 "/>
<text text-anchor="middle" x="596.88" y="-325.3" font-family="Courier New" font-size="14.00">0</text>
<polyline fill="none" stroke="black" points="563.68,-317.1 630.09,-317.1 "/>
<text text-anchor="middle" x="596.88" y="-300.5" font-family="Courier New" font-size="14.00">1</text>
<polyline fill="none" stroke="black" points="563.68,-292.3 630.09,-292.3 "/>
<text text-anchor="middle" x="596.88" y="-275.7" font-family="Courier New" font-size="14.00">2</text>
<polyline fill="none" stroke="black" points="563.68,-267.5 630.09,-267.5 "/>
<text text-anchor="middle" x="596.88" y="-250.9" font-family="Courier New" font-size="14.00">3</text>
<polyline fill="none" stroke="black" points="563.68,-242.7 630.09,-242.7 "/>
<text text-anchor="middle" x="596.88" y="-226.1" font-family="Courier New" font-size="14.00">4</text>
<polyline fill="none" stroke="black" points="563.68,-217.9 630.09,-217.9 "/>
<text text-anchor="middle" x="596.88" y="-201.3" font-family="Courier New" font-size="14.00">5</text>
<polyline fill="none" stroke="black" points="630.09,-193.1 630.09,-366.7 "/>
<text text-anchor="middle" x="931.33" y="-350.1" font-family="Courier New" font-size="14.00">type: variable (bytes)</text>
<polyline fill="none" stroke="black" points="630.09,-341.9 1232.58,-341.9 "/>
<text text-anchor="middle" x="705.3" y="-325.3" font-family="Courier New" font-size="14.00">unallocated (30)</text>
<polyline fill="none" stroke="black" points="780.51,-317.1 780.51,-341.9 "/>
<text text-anchor="middle" x="880.93" y="-325.3" font-family="Courier New" font-size="14.00">bool: adminUpdated (1)</text>
<polyline fill="none" stroke="black" points="981.34,-317.1 981.34,-341.9 "/>
<text text-anchor="middle" x="1106.96" y="-325.3" font-family="Courier New" font-size="14.00">PaymentType: paymentType (1)</text>
<polyline fill="none" stroke="black" points="630.09,-317.1 1232.58,-317.1 "/>
<text text-anchor="middle" x="931.2" y="-300.5" font-family="Courier New" font-size="14.00">uint256: paymentID (32)</text>
<polyline fill="none" stroke="black" points="630.09,-292.3 1232.58,-292.3 "/>
<text text-anchor="middle" x="931.31" y="-275.7" font-family="Courier New" font-size="14.00">string: recipientName (32)</text>
<polyline fill="none" stroke="black" points="630.09,-267.5 1232.58,-267.5 "/>
<text text-anchor="middle" x="765.8" y="-250.9" font-family="Courier New" font-size="14.00">unallocated (12)</text>
<polyline fill="none" stroke="black" points="901.51,-242.7 901.51,-267.5 "/>
<text text-anchor="middle" x="1066.63" y="-250.9" font-family="Courier New" font-size="14.00">address: recipient (20)</text>
<polyline fill="none" stroke="black" points="630.09,-242.7 1232.58,-242.7 "/>
<text text-anchor="middle" x="774.3" y="-226.1" font-family="Courier New" font-size="14.00">unallocated (12)</text>
<polyline fill="none" stroke="black" points="918.51,-217.9 918.51,-242.7 "/>
<text text-anchor="middle" x="1075.32" y="-226.1" font-family="Courier New" font-size="14.00">address: admin (20)</text>
<polyline fill="none" stroke="black" points="630.09,-217.9 1232.58,-217.9 "/>
<text text-anchor="middle" x="931.1" y="-201.3" font-family="Courier New" font-size="14.00">uint256: amount (32)</text>
</g>
<!-- 4&#45;&gt;2 -->
<g id="edge2" class="edge">
<title>4:16&#45;&gt;2</title>
<path fill="none" stroke="black" d="M527.68,-292.3C536.09,-292.3 544.62,-292.3 553.21,-292.3"/>
<polygon fill="black" stroke="black" points="553.33,-295.8 563.33,-292.3 553.33,-288.8 553.33,-295.8"/>
</g>
<!-- 3 -->
<g id="node4" class="node">
<title>3</title>
<polygon fill="#f2f2f2" stroke="black" points="593.09,-0.5 593.09,-174.1 1203.17,-174.1 1203.17,-0.5 593.09,-0.5"/>
<text text-anchor="middle" x="898.13" y="-157.5" font-family="Courier New" font-size="14.00">ImportantStruct &lt;&lt;Struct&gt;&gt;</text>
<polyline fill="none" stroke="black" points="593.09,-149.3 1203.17,-149.3 "/>
<text text-anchor="middle" x="626.29" y="-132.7" font-family="Courier New" font-size="14.00">offset</text>
<polyline fill="none" stroke="black" points="593.09,-124.5 659.49,-124.5 "/>
<text text-anchor="middle" x="626.29" y="-107.9" font-family="Courier New" font-size="14.00">0</text>
<polyline fill="none" stroke="black" points="593.09,-99.7 659.49,-99.7 "/>
<text text-anchor="middle" x="626.29" y="-83.1" font-family="Courier New" font-size="14.00">1</text>
<polyline fill="none" stroke="black" points="593.09,-74.9 659.49,-74.9 "/>
<text text-anchor="middle" x="626.29" y="-58.3" font-family="Courier New" font-size="14.00">2</text>
<polyline fill="none" stroke="black" points="593.09,-50.1 659.49,-50.1 "/>
<text text-anchor="middle" x="626.29" y="-33.5" font-family="Courier New" font-size="14.00">3</text>
<polyline fill="none" stroke="black" points="593.09,-25.3 659.49,-25.3 "/>
<text text-anchor="middle" x="626.29" y="-8.7" font-family="Courier New" font-size="14.00">4</text>
<polyline fill="none" stroke="black" points="659.49,-0.5 659.49,-149.3 "/>
<text text-anchor="middle" x="931.33" y="-132.7" font-family="Courier New" font-size="14.00">type: variable (bytes)</text>
<polyline fill="none" stroke="black" points="659.49,-124.5 1203.17,-124.5 "/>
<text text-anchor="middle" x="931.01" y="-107.9" font-family="Courier New" font-size="14.00">uint256: amount (32)</text>
<polyline fill="none" stroke="black" points="659.49,-99.7 1203.17,-99.7 "/>
<text text-anchor="middle" x="931.01" y="-83.1" font-family="Courier New" font-size="14.00">uint256: valueA (32)</text>
<polyline fill="none" stroke="black" points="659.49,-74.9 1203.17,-74.9 "/>
<text text-anchor="middle" x="931.01" y="-58.3" font-family="Courier New" font-size="14.00">uint256: valueB (32)</text>
<polyline fill="none" stroke="black" points="659.49,-50.1 1203.17,-50.1 "/>
<text text-anchor="middle" x="930.91" y="-33.5" font-family="Courier New" font-size="14.00">uint256: bigValue (32)</text>
<polyline fill="none" stroke="black" points="659.49,-25.3 1203.17,-25.3 "/>
<text text-anchor="middle" x="734.7" y="-8.7" font-family="Courier New" font-size="14.00">unallocated (11)</text>
<polyline fill="none" stroke="black" points="809.92,-0.5 809.92,-25.3 "/>
<text text-anchor="middle" x="901.93" y="-8.7" font-family="Courier New" font-size="14.00">address: sender (20)</text>
<polyline fill="none" stroke="black" points="993.94,-0.5 993.94,-25.3 "/>
<text text-anchor="middle" x="1098.56" y="-8.7" font-family="Courier New" font-size="14.00">bool: paymentStatus (1)</text>
</g>
<!-- 4&#45;&gt;3 -->
<g id="edge3" class="edge">
<title>4:23&#45;&gt;3</title>
<path fill="none" stroke="black" d="M527.68,-268.3C568.71,-268.3 532.98,-210.51 563.68,-183.3 570.24,-177.48 577.14,-172.02 584.3,-166.88"/>
<polygon fill="black" stroke="black" points="586.59,-169.56 592.84,-161.01 582.61,-163.8 586.59,-169.56"/>
</g>
</g>
</svg>
