<?xml version="1.0" encoding="UTF-8" standalone="no"?>
<!DOCTYPE svg PUBLIC "-//W3C//DTD SVG 1.1//EN"
 "http://www.w3.org/Graphics/SVG/1.1/DTD/svg11.dtd">
<!-- Generated by graphviz version 5.0.0 (20220707.1540)
 -->
<!-- Title: StorageDiagram Pages: 1 -->
<svg width="789pt" height="195pt"
 viewBox="0.00 0.00 789.31 195.40" xmlns="http://www.w3.org/2000/svg" xmlns:xlink="http://www.w3.org/1999/xlink">
<g id="graph0" class="graph" transform="scale(1 1) rotate(0) translate(4 191.4)">
<title>StorageDiagram</title>
<polygon fill="white" stroke="transparent" points="-4,4 -4,-191.4 785.31,-191.4 785.31,4 -4,4"/>
<!-- 2 -->
<g id="node1" class="node">
<title>2</title>
<polygon fill="#f2f2f2" stroke="black" points="0,-62.9 0,-186.9 426.86,-186.9 426.86,-62.9 0,-62.9"/>
<text text-anchor="middle" x="213.43" y="-170.3" font-family="Courier New" font-size="14.00">GasContract &lt;&lt;Contract&gt;&gt;</text>
<polyline fill="none" stroke="black" points="0,-162.1 426.86,-162.1 "/>
<text text-anchor="middle" x="24.8" y="-145.5" font-family="Courier New" font-size="14.00">slot</text>
<polyline fill="none" stroke="black" points="0,-137.3 49.61,-137.3 "/>
<text text-anchor="middle" x="24.8" y="-120.7" font-family="Courier New" font-size="14.00">0</text>
<polyline fill="none" stroke="black" points="0,-112.5 49.61,-112.5 "/>
<text text-anchor="middle" x="24.8" y="-95.9" font-family="Courier New" font-size="14.00">1</text>
<polyline fill="none" stroke="black" points="0,-87.7 49.61,-87.7 "/>
<text text-anchor="middle" x="24.8" y="-71.1" font-family="Courier New" font-size="14.00">2&#45;6</text>
<polyline fill="none" stroke="black" points="49.61,-62.9 49.61,-162.1 "/>
<text text-anchor="middle" x="238.23" y="-145.5" font-family="Courier New" font-size="14.00">type: &lt;inherited contract&gt;.variable (bytes)</text>
<polyline fill="none" stroke="black" points="49.61,-137.3 426.86,-137.3 "/>
<text text-anchor="middle" x="237.93" y="-120.7" font-family="Courier New" font-size="14.00">uint256: whiteListAmount (32)</text>
<polyline fill="none" stroke="black" points="49.61,-112.5 426.86,-112.5 "/>
<text text-anchor="middle" x="238.13" y="-95.9" font-family="Courier New" font-size="14.00">mapping(address=&gt;uint256): balances (32)</text>
<polyline fill="none" stroke="black" points="49.61,-87.7 426.86,-87.7 "/>
<text text-anchor="middle" x="238.03" y="-71.1" font-family="Courier New" font-size="14.00">address[5]: administrators (160)</text>
</g>
<!-- 1 -->
<g id="node2" class="node">
<title>1</title>
<polygon fill="#f2f2f2" stroke="black" points="462.86,-0.5 462.86,-149.3 781.31,-149.3 781.31,-0.5 462.86,-0.5"/>
<text text-anchor="middle" x="622.09" y="-132.7" font-family="Courier New" font-size="14.00">address[5]: administrators &lt;&lt;Array&gt;&gt;</text>
<polyline fill="none" stroke="black" points="462.86,-124.5 781.31,-124.5 "/>
<text text-anchor="middle" x="487.67" y="-107.9" font-family="Courier New" font-size="14.00">slot</text>
<polyline fill="none" stroke="black" points="462.86,-99.7 512.47,-99.7 "/>
<text text-anchor="middle" x="487.67" y="-83.1" font-family="Courier New" font-size="14.00">2</text>
<polyline fill="none" stroke="black" points="462.86,-74.9 512.47,-74.9 "/>
<text text-anchor="middle" x="487.67" y="-58.3" font-family="Courier New" font-size="14.00">3</text>
<polyline fill="none" stroke="black" points="462.86,-50.1 512.47,-50.1 "/>
<text text-anchor="middle" x="487.67" y="-33.5" font-family="Courier New" font-size="14.00">5</text>
<polyline fill="none" stroke="black" points="462.86,-25.3 512.47,-25.3 "/>
<text text-anchor="middle" x="487.67" y="-8.7" font-family="Courier New" font-size="14.00">6</text>
<polyline fill="none" stroke="black" points="512.47,-0.5 512.47,-124.5 "/>
<text text-anchor="middle" x="646.59" y="-107.9" font-family="Courier New" font-size="14.00">type: variable (bytes)</text>
<polyline fill="none" stroke="black" points="512.47,-99.7 780.71,-99.7 "/>
<text text-anchor="middle" x="587.68" y="-83.1" font-family="Courier New" font-size="14.00">unallocated (12)</text>
<polyline fill="none" stroke="black" points="662.89,-74.9 662.89,-99.7 "/>
<text text-anchor="middle" x="721.8" y="-83.1" font-family="Courier New" font-size="14.00">address (20)</text>
<polyline fill="none" stroke="black" points="512.47,-74.9 780.71,-74.9 "/>
<text text-anchor="middle" x="587.68" y="-58.3" font-family="Courier New" font-size="14.00">unallocated (12)</text>
<polyline fill="none" stroke="black" points="662.89,-50.1 662.89,-74.9 "/>
<text text-anchor="middle" x="721.8" y="-58.3" font-family="Courier New" font-size="14.00">address (20)</text>
<polyline fill="none" stroke="black" points="512.47,-50.1 780.71,-50.1 "/>
<text text-anchor="middle" x="587.68" y="-33.5" font-family="Courier New" font-size="14.00">unallocated (12)</text>
<polyline fill="none" stroke="black" points="662.89,-25.3 662.89,-50.1 "/>
<text text-anchor="middle" x="721.8" y="-33.5" font-family="Courier New" font-size="14.00">address (20)</text>
<polyline fill="none" stroke="black" points="512.47,-25.3 780.71,-25.3 "/>
<text text-anchor="middle" x="587.68" y="-8.7" font-family="Courier New" font-size="14.00">unallocated (12)</text>
<polyline fill="none" stroke="black" points="662.89,-0.5 662.89,-25.3 "/>
<text text-anchor="middle" x="721.8" y="-8.7" font-family="Courier New" font-size="14.00">address (20)</text>
</g>
<!-- 2&#45;&gt;1 -->
<g id="edge1" class="edge">
<title>2:7&#45;&gt;1</title>
<path fill="none" stroke="black" d="M426.86,-74.9C435.23,-74.9 443.79,-74.9 452.44,-74.9"/>
<polygon fill="black" stroke="black" points="452.62,-78.4 462.62,-74.9 452.62,-71.4 452.62,-78.4"/>
</g>
</g>
</svg>
